<svg width="1440" height="215" fill="none" xmlns="http://www.w3.org/2000/svg"><g clip-path="url(#clip0_283_3)"><path d="M396 .49C229.678 8.411-20 93.99-20 93.99v127.999h628.5c116.097 0 145.518-5.159 261.5 0 72.943 3.245 102.484 0 175.5 0H1452V.489s-134.63 116.522-237 112.5c-83.9-3.295-111.53-89.454-195.5-89.5-61.259-.033-89.424 35.519-149.5 47.5C686.47 107.593 582.933-8.415 396 .49z" fill="#2059A4"/><path d="M351.5 87.49C203.496 93.93-12 195.988-12 195.988v36.5h1456v-145s-149.95 141.54-259.5 120c-59.03-11.606-75.57-61.671-134-76-90.452-22.18-140.937 49.577-234 46-93.593-3.597-142.448-33.985-231-64.5-74-25.5-142.163-29.496-234-25.5z" fill="#fff"/><path d="M351.5 79.49C203.496 85.93-12 187.988-12 187.988v36.5h1456v-145s-149.95 141.54-259.5 120c-59.03-11.606-75.57-61.671-134-76-90.452-22.18-140.937 49.577-234 46-93.593-3.597-141.377-37.293-231-64.5-84-25.5-142.163-29.496-234-25.5z" stroke="#fff" stroke-width="3" stroke-linecap="round" stroke-linejoin="round" stroke-dasharray="4 7"/></g><defs><clipPath id="clip0_283_3"><path fill="#fff" d="M0 0h1440v215H0z"/></clipPath></defs></svg>