<svg width="36" height="36" fill="none" xmlns="http://www.w3.org/2000/svg"><mask id="a" fill="#fff"><path d="M32.153 4.89a1.682 1.682 0 00-1.718-.293L4.482 14.793a1.687 1.687 0 00.286 3.226l7.045 1.409v8.695a1.66 1.66 0 001.041 1.559 1.664 1.664 0 001.839-.366l4.022-4.021 5.933 5.221a1.673 1.673 0 001.633.34 1.674 1.674 0 001.127-1.23l5.29-23.081a1.684 1.684 0 00-.545-1.656zM4.54 16.413a.544.544 0 01.354-.574l23.79-9.346-16.438 11.873-7.256-1.451a.544.544 0 01-.45-.502zm9.359 12.107a.563.563 0 01-.96-.398V20.21l4.93 4.339-3.97 3.97zM31.6 6.294l-5.29 23.08a.564.564 0 01-.92.298L13.276 19.01 31.51 5.84a.536.536 0 01.09.453z"/></mask><path d="M32.153 4.89a1.682 1.682 0 00-1.718-.293L4.482 14.793a1.687 1.687 0 00.286 3.226l7.045 1.409v8.695a1.66 1.66 0 001.041 1.559 1.664 1.664 0 001.839-.366l4.022-4.021 5.933 5.221a1.673 1.673 0 001.633.34 1.674 1.674 0 001.127-1.23l5.29-23.081a1.684 1.684 0 00-.545-1.656zM4.54 16.413a.544.544 0 01.354-.574l23.79-9.346-16.438 11.873-7.256-1.451a.544.544 0 01-.45-.502zm9.359 12.107a.563.563 0 01-.96-.398V20.21l4.93 4.339-3.97 3.97zM31.6 6.294l-5.29 23.08a.564.564 0 01-.92.298L13.276 19.01 31.51 5.84a.536.536 0 01.09.453z" fill="#fff"/><path d="M32.153 4.89l-3.922 4.54.007.005.007.007 3.908-4.553zm-1.718-.293l2.194 5.585.01-.004-2.204-5.58zM4.482 14.793l2.194 5.585-2.194-5.585zm.286 3.226l1.177-5.884-1.177 5.884zm7.045 1.409h6v-4.92l-4.824-.964-1.177 5.884zm0 8.695l6 .063v-.063h-6zm1.041 1.559l2.318-5.535-.04-.016-.04-.016-2.238 5.567zm.657.133l-.016 6h.035l-.02-6zm1.182-.499l-4.242-4.243-.02.02-.02.021 4.282 4.202zm4.022-4.021l3.963-4.505-4.226-3.718-3.98 3.98 4.243 4.243zm5.933 5.221l3.984-4.486-.01-.01-.01-.008-3.964 4.504zm1.11.422l-.007 6h.013l-.007-6zm.523-.083l-1.814-5.72-.019.007-.018.006 1.85 5.707zm1.127-1.229l-5.849-1.34-.003.014-.003.014 5.855 1.312zm5.29-23.081L26.85 5.196l-.002.009 5.848 1.34zm-28.16 9.869l5.989-.373-.01-.157-.018-.157-5.96.687zm.355-.574l2.047 5.64.074-.026.073-.03-2.194-5.584zm23.79-9.346l3.514 4.864L26.49.91l2.194 5.584zM12.246 18.367l-1.177 5.883 2.567.514 2.123-1.533-3.513-4.864zM4.99 16.916l1.176-5.884-.077-.015-.077-.014-1.022 5.913zm8.909 11.605l-4.243-4.243 4.243 4.243zm-.96-.398h-6 6zm0-7.912l3.963-4.504-9.964-8.769v13.273h6zm4.93 4.339l4.243 4.243 4.522-4.522-4.8-4.225-3.965 4.504zM31.601 6.294l-5.817-1.471-.017.065-.015.065 5.849 1.34zm-5.29 23.08l5.848 1.342-5.848-1.341zm-.92.298l-3.964 4.504 3.964-4.505zM13.276 19.01l-3.513-4.864-6.095 4.401 5.644 4.967 3.964-4.504zM31.51 5.84l4.798-3.602-3.537-4.71L27.997.976 31.51 5.84zM36.076.349a7.683 7.683 0 00-3.736-1.76l-2.01 11.83a4.317 4.317 0 01-2.1-.99L36.076.35zM32.34-1.41a7.682 7.682 0 00-4.109.428l4.408 11.161a4.318 4.318 0 01-2.309.24l2.01-11.83zm-4.099.424L2.288 9.209l4.388 11.169 25.953-10.196-4.388-11.17zM2.288 9.209a7.687 7.687 0 00-3.727 3.11l10.205 6.314a4.313 4.313 0 01-2.09 1.745L2.288 9.208zm-3.727 3.11a7.687 7.687 0 00-1.12 4.724l11.954-1.06a4.313 4.313 0 01-.629 2.65L-1.439 12.32zm-1.12 4.724a7.687 7.687 0 001.934 4.453l8.935-8.011a4.313 4.313 0 011.085 2.498l-11.953 1.06zm1.934 4.453a7.687 7.687 0 004.217 2.406l2.352-11.767a4.313 4.313 0 012.366 1.35l-8.935 8.011zm4.216 2.406l7.045 1.41 2.353-11.768-7.044-1.409L3.59 23.902zm2.221-4.474v8.695h12v-8.695h-12zm0 8.632a7.661 7.661 0 001.292 4.337l9.977-6.667c.486.726.74 1.582.731 2.456l-12-.126zm1.292 4.337a7.662 7.662 0 003.513 2.852l4.475-11.134c.81.325 1.504.888 1.99 1.615l-9.978 6.667zm3.433 2.82a7.713 7.713 0 002.958.598l.032-12a4.29 4.29 0 011.645.332l-4.635 11.07zm2.992.598a7.665 7.665 0 002.954-.602l-4.662-11.058a4.336 4.336 0 011.67-.34l.039 12zm2.954-.602a7.665 7.665 0 002.493-1.695l-8.566-8.404a4.34 4.34 0 011.41-.959l4.663 11.057zm2.453-1.654l4.021-4.022-8.485-8.485-4.021 4.021 8.485 8.486zm-4.185-3.76l5.933 5.221 7.928-9.008-5.934-5.222-7.927 9.009zm5.913 5.203a7.673 7.673 0 005.087 1.936l.013-12a4.327 4.327 0 012.868 1.092l-7.968 8.972zm5.1 1.936a7.68 7.68 0 002.368-.376L24.43 25.148a4.3 4.3 0 011.32-.21l.014 12zm2.33-.364a7.673 7.673 0 003.337-2.128l-8.845-8.11a4.327 4.327 0 011.881-1.2l3.628 11.439zm3.337-2.128a7.673 7.673 0 001.831-3.508l-11.71-2.624a4.326 4.326 0 011.034-1.978l8.845 8.11zm1.825-3.48l5.29-23.08-11.697-2.681-5.29 23.08 11.697 2.681zm5.288-23.072a7.683 7.683 0 00-.187-4.125L26.956 7.513a4.316 4.316 0 01-.105-2.317l11.693 2.698zm-.187-4.125A7.683 7.683 0 0036.062.337l-7.817 9.105a4.316 4.316 0 01-1.29-1.929L38.358 3.77zM10.499 15.727a5.457 5.457 0 01-.78 3.495L-.486 12.908a6.544 6.544 0 00-.936 4.192l11.921-1.373zm-.78 3.495a5.456 5.456 0 01-2.78 2.259L2.848 10.2a6.543 6.543 0 00-3.333 2.707L9.72 19.223zm-2.632 2.203l23.79-9.346L26.49.909 2.7 10.257l4.387 11.169zM25.171 1.63L8.73 13.503l7.027 9.728 16.439-11.873L25.17 1.63zM13.42 12.483l-7.256-1.45-2.353 11.766 7.256 1.451 2.353-11.767zm-7.41-1.48c1.21.21 2.314.82 3.133 1.735L.21 20.748a6.544 6.544 0 003.757 2.08L6.01 11.003zm3.133 1.735a5.456 5.456 0 011.383 3.303l-11.977.745A6.543 6.543 0 00.21 20.748l8.935-8.01zm.51 11.54a5.438 5.438 0 012.785-1.488l2.341 11.77a6.563 6.563 0 003.36-1.797l-8.485-8.485zm2.785-1.488a5.437 5.437 0 013.142.31l-4.592 11.086a6.568 6.568 0 003.791.373L12.44 22.79zm3.142.31a5.437 5.437 0 012.44 2.002l-9.977 6.667a6.562 6.562 0 002.945 2.417l4.592-11.087zm2.44 2.002a5.43 5.43 0 01.916 3.02h-12c0 1.299.385 2.568 1.107 3.647l9.977-6.667zm.916 3.02v-7.911h-12v7.912h12zm-9.963-3.407l4.93 4.34 7.928-9.01-4.93-4.339-7.928 9.009zm4.652-4.408l-3.97 3.97 8.484 8.486 3.971-3.97-8.485-8.486zM25.752 4.953l-5.29 23.082 11.698 2.68 5.289-23.081-11.697-2.68zm-5.29 23.081a5.437 5.437 0 011.293-2.46l8.845 8.11a6.562 6.562 0 001.56-2.968l-11.697-2.682zm1.293-2.46a5.438 5.438 0 012.339-1.5l3.683 11.421a6.562 6.562 0 002.823-1.81l-8.845-8.11zm2.339-1.5a5.438 5.438 0 012.775-.149l-2.44 11.75a6.563 6.563 0 003.348-.18l-3.683-11.42zm2.775-.149c.922.192 1.778.62 2.485 1.242l-7.926 9.01a6.562 6.562 0 003 1.498l2.44-11.75zm2.486 1.242L17.239 14.506l-7.927 9.008 12.115 10.662 7.928-9.009zm-12.566-1.293l18.233-13.169L27.998.977 9.763 14.146l7.026 9.728zm9.922-14.43a5.465 5.465 0 01-.987-2.206l11.765-2.362a6.536 6.536 0 00-1.181-2.637L26.71 9.443zm-.987-2.206a5.47 5.47 0 01.06-2.415l11.633 2.941a6.537 6.537 0 00.072-2.888L25.724 7.238z" fill="#fff" mask="url(#a)"/></svg>