<svg width="29" height="19" fill="none" xmlns="http://www.w3.org/2000/svg"><path d="M.92 2.758c0-1.045.715-1.457 1.595-1.513l4.098.028c.247 0 .467.165.55.412.935 3.026 2.09 4.896 3.465 7.013.083.166.22.247.357.247.11 0 .22-.055.303-.192l.083-.303.027-4.757c0-.688-.33-.798-1.1-.908a.616.616 0 01-.495-.605c0-.055 0-.11.027-.165.386-1.183 1.595-1.788 3.3-1.788L14.67.2c1.265 0 2.42.55 2.42 2.173v6.242c.11.083.22.138.357.138.22 0 .496-.138.716-.496 1.43-2.007 3.052-4.4 3.273-5.665 0-.056.027-.083.055-.137.303-.606 1.073-1.018 1.403-1.128a.551.551 0 01.247-.055h4.263l.275.027c.413 0 .716.276.853.523.247.385.192.797.22.963v.192c-.413 2.503-3.273 5.308-4.483 7.123-.165.22-.247.413-.247.605 0 .166.083.33.22.496l4.015 5.06c.22.303.33.66.33.963 0 .907-.852 1.43-1.677 1.512l-.467.028h-4.18c-.083 0-.138.027-.22.027-.468 0-.853-.247-1.128-.523-.88-1.073-1.732-2.173-2.585-3.245-.165-.22-.22-.248-.385-.358-.193.798-.358 1.623-.55 2.448l-.083.467c-.138.495-.496 1.017-1.156 1.155l-.385.028h-2.696c-4.757 0-9.02-6.766-12.017-15.208a2.417 2.417 0 01-.137-.797H.92zm16.527 7.123c-.715 0-1.512-.413-1.512-1.183V2.373c0-.743-.33-1.018-1.238-1.018l-1.567.056c-.88 0-1.375.137-1.787.413.633.302 1.21.715 1.21 1.87v4.84c-.083.962-.88 1.595-1.65 1.595-.523 0-.99-.303-1.266-.797-1.237-1.87-2.282-3.63-3.19-6.16L6.2 2.456 2.543 2.43c-.496 0-.44.027-.44.275 0 .166.027.386.055.523l.577 1.54c2.998 7.756 6.766 12.843 10.34 12.843h2.75c.386 0 .358-.467.44-.743l.523-2.42c.11-.247.193-.467.386-.66a.98.98 0 01.715-.303c.523 0 1.017.413 1.347.798l2.338 2.97c.192.303.357.357.467.357h4.537c.44 0 .826-.137.826-.413a.528.528 0 00-.083-.275l-3.987-4.977c-.33-.413-.468-.826-.468-1.238 0-.44.166-.88.44-1.265 1.156-1.733 3.63-4.207 4.208-6.243l.082-.357c-.027-.137-.027-.247-.055-.386h-4.317c-.276.11-.496.276-.66.496l-.166.523c-.633 1.76-2.365 4.18-3.602 5.857-.413.385-.881.55-1.349.55z" fill="#fff"/></svg>