<svg width="33" height="31" fill="none" xmlns="http://www.w3.org/2000/svg"><path d="M24.064 18.316c-.387-.183-2.241-1.1-2.587-1.243-.347-.143-.591-.183-.856.204s-.978 1.222-1.202 1.487c-.224.265-.428.285-.815 0a10.449 10.449 0 01-3.036-1.874 10.692 10.692 0 01-2.037-2.628c-.224-.367 0-.57.163-.775.163-.203.367-.427.57-.652.15-.193.273-.406.367-.631a.773.773 0 000-.672c0-.184-.855-2.038-1.181-2.791-.326-.754-.612-.652-.836-.652H11.8a1.467 1.467 0 00-1.018.468 4.278 4.278 0 00-1.324 3.158 7.314 7.314 0 001.527 3.973 16.95 16.95 0 006.5 5.704c.896.387 1.589.611 2.139.795a5.154 5.154 0 002.383.142 3.933 3.933 0 002.567-1.793 3.403 3.403 0 00.224-1.792c-.102-.143-.346-.245-.733-.428z" fill="#fff"/><path d="M27.874 4.442A14.996 14.996 0 0017.096 0 15.157 15.157 0 004.037 22.716L2 30.56l8.027-2.037a15.075 15.075 0 007.232 1.833h-.163A15.158 15.158 0 0027.874 4.442zM17.096 27.749a12.472 12.472 0 01-6.417-1.773l-.448-.265-4.768 1.243 1.264-4.645-.286-.469A12.59 12.59 0 0126 6.255a12.47 12.47 0 013.688 8.903 12.61 12.61 0 01-12.59 12.59z" fill="#fff"/></svg>