<svg width="1440" height="215" viewBox="0 0 1440 215" fill="none" xmlns="http://www.w3.org/2000/svg">
<g clip-path="url(#clip0_283_3)">
<path d="M396 0.489416C229.678 8.41184 -20 93.9894 -20 93.9894V221.989H608.5C724.597 221.989 754.018 216.83 870 221.989C942.943 225.234 972.484 221.989 1045.5 221.989H1302H1452V0.489416C1452 0.489416 1317.37 117.011 1215 112.989C1131.1 109.694 1103.47 23.5348 1019.5 23.4894C958.241 23.4563 930.076 59.0077 870 70.9894C686.47 107.593 582.933 -8.41474 396 0.489416Z" fill="#2059A4"/>
<path d="M351.5 87.4894C203.496 93.9306 -12 195.989 -12 195.989V232.489H1444V195.989V87.4894C1444 87.4894 1294.05 229.029 1184.5 207.489C1125.47 195.883 1108.93 145.818 1050.5 131.489C960.048 109.309 909.563 181.066 816.5 177.489C722.907 173.892 674.052 143.504 585.5 112.989C511.5 87.4894 443.337 83.4926 351.5 87.4894Z" fill="white"/>
<path d="M351.5 79.4894C203.496 85.9306 -12 187.989 -12 187.989V199.489V224.489H1444V187.989V79.4894C1444 79.4894 1294.05 221.029 1184.5 199.489C1125.47 187.883 1108.93 137.818 1050.5 123.489C960.048 101.309 909.563 173.066 816.5 169.489C722.907 165.892 675.123 132.196 585.5 104.989C501.5 79.4894 443.337 75.4926 351.5 79.4894Z" stroke="white" stroke-width="3" stroke-linecap="round" stroke-linejoin="round" stroke-dasharray="4 7"/>
</g>
<defs>
<clipPath id="clip0_283_3">
<rect width="1440" height="215" fill="white"/>
</clipPath>
</defs>
</svg>
