<svg width="36" height="36" viewBox="0 0 36 36" fill="none" xmlns="http://www.w3.org/2000/svg">
<mask id="path-1-inside-1_249_105" fill="white">
<path d="M32.1533 4.88924C31.9209 4.68838 31.6379 4.555 31.335 4.50356C31.0321 4.45211 30.7209 4.48457 30.4352 4.59741L4.48186 14.7934C4.14258 14.9267 3.85559 15.1662 3.66383 15.4762C3.47206 15.7862 3.38583 16.15 3.41804 16.5131C3.45025 16.8762 3.59917 17.219 3.84252 17.4904C4.08586 17.7618 4.41055 17.9471 4.76798 18.0186L11.8125 19.4276V28.1229C11.809 28.4574 11.9065 28.7852 12.0924 29.0633C12.2783 29.3415 12.5438 29.5571 12.8542 29.6818C13.0621 29.7689 13.2853 29.814 13.5107 29.8146C13.731 29.8139 13.949 29.7695 14.152 29.6839C14.355 29.5983 14.539 29.4732 14.6932 29.316L18.7146 25.2946L24.648 30.5161C24.9538 30.7876 25.3484 30.9378 25.7573 30.9382C25.9351 30.938 26.1117 30.91 26.2808 30.8552C26.5597 30.7667 26.8105 30.6067 27.0082 30.3911C27.2059 30.1754 27.3437 29.9117 27.4076 29.6262L32.6971 6.54501C32.7661 6.24568 32.752 5.93315 32.6561 5.64129C32.5603 5.34943 32.3864 5.08935 32.1533 4.88924ZM4.53864 16.4136C4.52465 16.2921 4.55205 16.1694 4.6164 16.0654C4.68076 15.9614 4.77832 15.8821 4.8933 15.8404L28.6836 6.49417L12.2445 18.3668L4.9886 16.9156C4.86807 16.8947 4.75809 16.8338 4.67644 16.7427C4.59479 16.6517 4.54624 16.5357 4.53864 16.4136ZM13.8977 28.5206C13.819 28.5992 13.7188 28.6528 13.6097 28.6745C13.5006 28.6962 13.3875 28.6851 13.2847 28.6425C13.1819 28.5999 13.0941 28.5278 13.0323 28.4353C12.9705 28.3428 12.9375 28.2341 12.9375 28.1229V20.2107L17.8684 24.55L13.8977 28.5206ZM31.6005 6.2937L26.3111 29.3749C26.2893 29.4699 26.2432 29.5575 26.1774 29.6294C26.1115 29.7012 26.0281 29.7547 25.9354 29.7846C25.8427 29.8145 25.7438 29.8198 25.6484 29.7999C25.553 29.7801 25.4643 29.7359 25.3912 29.6715L13.2757 19.0098L31.5096 5.841C31.5576 5.90489 31.5906 5.97871 31.6064 6.05705C31.6221 6.13538 31.6201 6.21624 31.6005 6.2937Z"/>
</mask>
<path d="M32.1533 4.88924C31.9209 4.68838 31.6379 4.555 31.335 4.50356C31.0321 4.45211 30.7209 4.48457 30.4352 4.59741L4.48186 14.7934C4.14258 14.9267 3.85559 15.1662 3.66383 15.4762C3.47206 15.7862 3.38583 16.15 3.41804 16.5131C3.45025 16.8762 3.59917 17.219 3.84252 17.4904C4.08586 17.7618 4.41055 17.9471 4.76798 18.0186L11.8125 19.4276V28.1229C11.809 28.4574 11.9065 28.7852 12.0924 29.0633C12.2783 29.3415 12.5438 29.5571 12.8542 29.6818C13.0621 29.7689 13.2853 29.814 13.5107 29.8146C13.731 29.8139 13.949 29.7695 14.152 29.6839C14.355 29.5983 14.539 29.4732 14.6932 29.316L18.7146 25.2946L24.648 30.5161C24.9538 30.7876 25.3484 30.9378 25.7573 30.9382C25.9351 30.938 26.1117 30.91 26.2808 30.8552C26.5597 30.7667 26.8105 30.6067 27.0082 30.3911C27.2059 30.1754 27.3437 29.9117 27.4076 29.6262L32.6971 6.54501C32.7661 6.24568 32.752 5.93315 32.6561 5.64129C32.5603 5.34943 32.3864 5.08935 32.1533 4.88924ZM4.53864 16.4136C4.52465 16.2921 4.55205 16.1694 4.6164 16.0654C4.68076 15.9614 4.77832 15.8821 4.8933 15.8404L28.6836 6.49417L12.2445 18.3668L4.9886 16.9156C4.86807 16.8947 4.75809 16.8338 4.67644 16.7427C4.59479 16.6517 4.54624 16.5357 4.53864 16.4136ZM13.8977 28.5206C13.819 28.5992 13.7188 28.6528 13.6097 28.6745C13.5006 28.6962 13.3875 28.6851 13.2847 28.6425C13.1819 28.5999 13.0941 28.5278 13.0323 28.4353C12.9705 28.3428 12.9375 28.2341 12.9375 28.1229V20.2107L17.8684 24.55L13.8977 28.5206ZM31.6005 6.2937L26.3111 29.3749C26.2893 29.4699 26.2432 29.5575 26.1774 29.6294C26.1115 29.7012 26.0281 29.7547 25.9354 29.7846C25.8427 29.8145 25.7438 29.8198 25.6484 29.7999C25.553 29.7801 25.4643 29.7359 25.3912 29.6715L13.2757 19.0098L31.5096 5.841C31.5576 5.90489 31.5906 5.97871 31.6064 6.05705C31.6221 6.13538 31.6201 6.21624 31.6005 6.2937Z" fill="white"/>
<path d="M32.1533 4.88924L28.2305 9.42921L28.2376 9.43539L28.2448 9.44154L32.1533 4.88924ZM30.4352 4.59741L32.6291 10.1819L32.6391 10.178L30.4352 4.59741ZM4.48186 14.7934L6.67566 20.378L6.67578 20.3779L4.48186 14.7934ZM4.76798 18.0186L5.94475 12.1351L5.94438 12.135L4.76798 18.0186ZM11.8125 19.4276H17.8125V14.5088L12.9893 13.5441L11.8125 19.4276ZM11.8125 28.1229L17.8122 28.186L17.8125 28.1544V28.1229H11.8125ZM12.8542 29.6818L15.1715 24.1473L15.1316 24.1307L15.0916 24.1146L12.8542 29.6818ZM13.5107 29.8146L13.4948 35.8146L13.5121 35.8146L13.5295 35.8146L13.5107 29.8146ZM14.6932 29.316L10.4506 25.0733L10.4303 25.0936L10.4102 25.1141L14.6932 29.316ZM18.7146 25.2946L22.6784 20.7904L18.4524 17.0715L14.4719 21.052L18.7146 25.2946ZM24.648 30.5161L28.6322 26.0299L28.622 26.0208L28.6118 26.0118L24.648 30.5161ZM25.7573 30.9382L25.7508 36.9383L25.7643 36.9382L25.7573 30.9382ZM26.2808 30.8552L24.4671 25.1358L24.4484 25.1418L24.4297 25.1478L26.2808 30.8552ZM27.4076 29.6262L21.5593 28.2859L21.556 28.3L21.5529 28.3141L27.4076 29.6262ZM32.6971 6.54501L26.8506 5.19623L26.8487 5.20476L32.6971 6.54501ZM4.53864 16.4136L10.527 16.0408L10.5173 15.8837L10.4993 15.7273L4.53864 16.4136ZM4.8933 15.8404L6.93951 21.4807L7.01373 21.4538L7.08723 21.4249L4.8933 15.8404ZM28.6836 6.49417L32.1965 11.3583L26.4896 0.909664L28.6836 6.49417ZM12.2445 18.3668L11.0678 24.2502L13.635 24.7637L15.7575 23.2308L12.2445 18.3668ZM4.9886 16.9156L6.1653 11.0321L6.0885 11.0167L6.01131 11.0034L4.9886 16.9156ZM13.8977 28.5206L9.65509 24.2779L9.6549 24.2781L13.8977 28.5206ZM12.9375 28.1229H6.93749V28.1229L12.9375 28.1229ZM12.9375 20.2107L16.9013 15.7065L6.93749 6.93823V20.2107H12.9375ZM17.8684 24.55L22.111 28.7926L26.6331 24.2706L21.8322 20.0457L17.8684 24.55ZM31.6005 6.2937L25.7836 4.82297L25.7671 4.88803L25.7521 4.95345L31.6005 6.2937ZM26.3111 29.3749L32.1593 30.7158L32.1595 30.7151L26.3111 29.3749ZM25.3912 29.6715L21.4274 34.1758L21.4279 34.1762L25.3912 29.6715ZM13.2757 19.0098L9.7628 14.1457L3.66808 18.5475L9.31194 23.5141L13.2757 19.0098ZM31.5096 5.841L36.3078 2.23854L32.7714 -2.47151L27.9967 0.976915L31.5096 5.841ZM36.0762 0.349266C35.0148 -0.56783 33.7226 -1.17684 32.3397 -1.41173L30.3303 10.4188C29.5531 10.2868 28.827 9.94459 28.2305 9.42921L36.0762 0.349266ZM32.3397 -1.41173C30.9568 -1.64661 29.536 -1.4984 28.2314 -0.983182L32.6391 10.178C31.9059 10.4675 31.1074 10.5508 30.3303 10.4188L32.3397 -1.41173ZM28.2413 -0.987093L2.28794 9.20891L6.67578 20.3779L32.6291 10.1819L28.2413 -0.987093ZM2.28805 9.20886C0.742397 9.81605 -0.565086 10.9074 -1.43874 12.3197L8.76639 18.6328C8.27627 19.4251 7.54277 20.0373 6.67566 20.378L2.28805 9.20886ZM-1.43874 12.3197C-2.31239 13.7319 -2.70524 15.3891 -2.55849 17.0433L9.39457 15.9829C9.47689 16.9108 9.25651 17.8405 8.76639 18.6328L-1.43874 12.3197ZM-2.55849 17.0433C-2.41174 18.6974 -1.73329 20.2596 -0.624652 21.496L8.30969 13.4849C8.93163 14.1785 9.31224 15.0549 9.39457 15.9829L-2.55849 17.0433ZM-0.624652 21.496C0.483975 22.7324 1.96317 23.5765 3.59159 23.9021L5.94438 12.135C6.85792 12.3177 7.68775 12.7913 8.30969 13.4849L-0.624652 21.496ZM3.59121 23.9021L10.6357 25.3111L12.9893 13.5441L5.94475 12.1351L3.59121 23.9021ZM5.81249 19.4276V28.1229H17.8125V19.4276H5.81249ZM5.81282 28.0597C5.79658 29.6024 6.24648 31.1141 7.10364 32.3969L17.0811 25.7298C17.5666 26.4563 17.8213 27.3123 17.8122 28.186L5.81282 28.0597ZM7.10364 32.3969C7.96081 33.6796 9.18528 34.6737 10.6168 35.249L15.0916 24.1146C15.9023 24.4404 16.5957 25.0034 17.0811 25.7298L7.10364 32.3969ZM10.5369 35.2163C11.4738 35.6085 12.479 35.8119 13.4948 35.8146L13.5266 23.8146C14.0915 23.8161 14.6505 23.9292 15.1715 24.1473L10.5369 35.2163ZM13.5295 35.8146C14.5442 35.8114 15.5482 35.6067 16.4832 35.2125L11.8207 24.1553C12.3497 23.9322 12.9178 23.8164 13.4919 23.8146L13.5295 35.8146ZM16.4832 35.2125C17.4182 34.8182 18.2656 34.2422 18.9763 33.5178L10.4102 25.1141C10.8123 24.7043 11.2917 24.3784 11.8207 24.1553L16.4832 35.2125ZM18.9359 33.5586L22.9572 29.5373L14.4719 21.052L10.4506 25.0733L18.9359 33.5586ZM14.7508 29.7989L20.6842 35.0204L28.6118 26.0118L22.6784 20.7904L14.7508 29.7989ZM20.6638 35.0023C22.066 36.2476 23.8756 36.9362 25.7508 36.9382L25.7637 24.9382C26.8212 24.9394 27.8416 25.3277 28.6322 26.0299L20.6638 35.0023ZM25.7643 36.9382C26.5682 36.9373 27.3671 36.8105 28.1319 36.5625L24.4297 25.1478C24.8563 25.0095 25.3019 24.9388 25.7503 24.9382L25.7643 36.9382ZM28.0945 36.5745C29.3735 36.1689 30.5238 35.435 31.4306 34.446L22.5859 26.3361C23.0972 25.7784 23.7459 25.3646 24.4671 25.1358L28.0945 36.5745ZM31.4306 34.446C32.3374 33.457 32.969 32.2476 33.2624 30.9383L21.5529 28.3141C21.7183 27.5758 22.0745 26.8938 22.5859 26.3361L31.4306 34.446ZM33.256 30.9665L38.5455 7.88527L26.8487 5.20476L21.5593 28.2859L33.256 30.9665ZM38.5435 7.8938C38.8587 6.52765 38.7941 5.10131 38.3566 3.76926L26.9557 7.51332C26.7099 6.765 26.6736 5.9637 26.8507 5.19623L38.5435 7.8938ZM38.3566 3.76926C37.9192 2.43721 37.1256 1.25025 36.0619 0.336938L28.2448 9.44154C27.6472 8.92846 27.2014 8.26164 26.9557 7.51332L38.3566 3.76926ZM10.4993 15.7273C10.6397 16.9469 10.3647 18.1783 9.71875 19.2223L-0.485938 12.9085C-1.26061 14.1606 -1.59039 15.6373 -1.42197 17.1L10.4993 15.7273ZM9.71875 19.2223C9.07278 20.2664 8.0936 21.062 6.93951 21.4807L2.84709 10.2001C1.46304 10.7022 0.288742 11.6564 -0.485938 12.9085L9.71875 19.2223ZM7.08723 21.4249L30.8775 12.0787L26.4896 0.909664L2.69937 10.2559L7.08723 21.4249ZM25.1706 1.63008L8.73159 13.5027L15.7575 23.2308L32.1965 11.3583L25.1706 1.63008ZM13.4212 12.4833L6.1653 11.0321L3.8119 22.799L11.0678 24.2502L13.4212 12.4833ZM6.01131 11.0034C7.22096 11.2126 8.32468 11.8237 9.1441 12.7377L0.208786 20.7477C1.1915 21.844 2.51518 22.5768 3.96589 22.8278L6.01131 11.0034ZM9.1441 12.7377C9.96351 13.6518 10.4508 14.8155 10.527 16.0408L-1.44976 16.7865C-1.35827 18.2559 -0.77392 19.6515 0.208786 20.7477L9.1441 12.7377ZM9.6549 24.2781C10.4153 23.5176 11.3842 22.9997 12.439 22.7898L14.7804 34.5592C16.0534 34.3059 17.2227 33.6809 18.1405 32.763L9.6549 24.2781ZM12.439 22.7898C13.4937 22.58 14.587 22.6876 15.5807 23.0992L10.9887 34.1858C12.188 34.6825 13.5075 34.8124 14.7804 34.5592L12.439 22.7898ZM15.5807 23.0992C16.5744 23.5107 17.4236 24.2077 18.021 25.1018L8.04352 31.7688C8.7646 32.848 9.78952 33.6891 10.9887 34.1858L15.5807 23.0992ZM18.021 25.1018C18.6185 25.996 18.9375 27.0473 18.9375 28.1228L6.93749 28.1229C6.9375 29.4209 7.32242 30.6897 8.04352 31.7688L18.021 25.1018ZM18.9375 28.1229V20.2107H6.93749V28.1229H18.9375ZM8.97369 24.715L13.9046 29.0542L21.8322 20.0457L16.9013 15.7065L8.97369 24.715ZM13.6258 20.3073L9.65509 24.2779L18.1403 32.7632L22.111 28.7926L13.6258 20.3073ZM25.7521 4.95345L20.4627 28.0346L32.1595 30.7151L37.4489 7.63396L25.7521 4.95345ZM20.4628 28.034C20.6733 27.1159 21.1187 26.2683 21.7552 25.5742L30.5996 33.6845C31.3678 32.8468 31.9053 31.8238 32.1593 30.7158L20.4628 28.034ZM21.7552 25.5742C22.3917 24.8801 23.1976 24.3632 24.094 24.0741L27.7768 35.495C28.8587 35.1461 29.8314 34.5223 30.5996 33.6845L21.7552 25.5742ZM24.094 24.0741C24.9904 23.7851 25.9465 23.7338 26.8686 23.9253L24.4281 35.6746C25.541 35.9057 26.6949 35.8439 27.7768 35.495L24.094 24.0741ZM26.8686 23.9253C27.7908 24.1169 28.6474 24.5447 29.3544 25.1668L21.4279 34.1762C22.2813 34.9271 23.3151 35.4434 24.4281 35.6746L26.8686 23.9253ZM29.355 25.1672L17.2395 14.5056L9.31194 23.5141L21.4274 34.1758L29.355 25.1672ZM16.7887 23.8739L35.0225 10.7051L27.9967 0.976915L9.7628 14.1457L16.7887 23.8739ZM26.7114 9.44346C26.2218 8.79134 25.8844 8.03791 25.7238 7.23838L37.4889 4.87572C37.2969 3.91952 36.8933 3.01845 36.3078 2.23854L26.7114 9.44346ZM25.7238 7.23838C25.5633 6.43889 25.5837 5.61358 25.7836 4.82297L37.4175 7.76444C37.6565 6.81891 37.6809 5.83188 37.4889 4.87572L25.7238 7.23838Z" fill="white" mask="url(#path-1-inside-1_249_105)"/>
</svg>
