<svg width="29" height="19" viewBox="0 0 29 19" fill="none" xmlns="http://www.w3.org/2000/svg">
<path d="M0.920044 2.75814C0.920044 1.7127 1.63548 1.30086 2.51548 1.24542L6.61277 1.2727C6.86005 1.2727 7.08005 1.43814 7.16277 1.68542C8.09821 4.71086 9.25277 6.58086 10.6282 8.69814C10.7109 8.86358 10.8482 8.94542 10.9855 8.94542C11.0955 8.94542 11.2055 8.88998 11.2882 8.7527L11.3709 8.44998L11.3982 3.6927C11.3982 3.00542 11.0682 2.89542 10.2982 2.78542C9.99549 2.72998 9.80277 2.45542 9.80277 2.17998C9.80277 2.12454 9.80277 2.06998 9.83005 2.01454C10.2155 0.831822 11.4255 0.227262 13.13 0.227262L14.67 0.199982C15.9355 0.199982 17.09 0.749982 17.09 2.3727V8.61542C17.2 8.69814 17.31 8.7527 17.4473 8.7527C17.6673 8.7527 17.9428 8.61542 18.1628 8.25726C19.5928 6.24998 21.2155 3.85726 21.4355 2.59182C21.4355 2.53638 21.4628 2.5091 21.4909 2.45454C21.7936 1.8491 22.5637 1.43726 22.8937 1.32726C22.9491 1.29998 23.0309 1.27182 23.1409 1.27182H27.4037L27.6791 1.2991C28.0918 1.2991 28.3945 1.57454 28.5318 1.82182C28.7791 2.20726 28.7245 2.6191 28.7518 2.78454V2.97726C28.3391 5.47998 25.4791 8.28454 24.2691 10.1C24.1037 10.32 24.0218 10.5127 24.0218 10.7054C24.0218 10.8709 24.1045 11.0354 24.2418 11.2009L28.2573 16.2609C28.4773 16.5636 28.5873 16.9209 28.5873 17.2236C28.5873 18.1309 27.7345 18.6536 26.91 18.7363L26.4427 18.7636H22.2627C22.18 18.7636 22.1254 18.7909 22.0427 18.7909C21.5754 18.7909 21.19 18.5436 20.9154 18.2681C20.0354 17.1954 19.1827 16.0954 18.33 15.0227C18.1645 14.8027 18.11 14.7754 17.9445 14.6654C17.7518 15.4627 17.5872 16.2881 17.3945 17.1127L17.3118 17.58C17.1745 18.0754 16.8164 18.5973 16.1564 18.7354L15.7709 18.7627H13.0755C8.31821 18.7627 4.05549 11.9973 1.0582 3.55542C0.975484 3.33542 0.920924 3.0327 0.920924 2.75814H0.920044ZM17.4473 9.88086C16.7319 9.88086 15.9346 9.46814 15.9346 8.69814V2.3727C15.9346 1.62998 15.6046 1.35542 14.6973 1.35542L13.13 1.41086C12.25 1.41086 11.7546 1.54814 11.3428 1.82358C11.9755 2.1263 12.5528 2.53902 12.5528 3.69358V8.53358C12.47 9.4963 11.6728 10.129 10.9028 10.129C10.38 10.129 9.91277 9.8263 9.63733 9.33174C8.40005 7.46174 7.35461 5.70174 6.44733 3.17174L6.20005 2.4563L2.54276 2.42902C2.04732 2.42902 2.10276 2.4563 2.10276 2.70446C2.10276 2.8699 2.13004 3.0899 2.1582 3.22718L2.73548 4.76718C5.73277 12.5226 9.50093 17.6099 13.0755 17.6099H15.8255C16.2109 17.6099 16.1828 17.1426 16.2655 16.8672L16.7882 14.4472C16.8982 14.1999 16.9809 13.9799 17.1736 13.7872C17.3936 13.5672 17.6409 13.4845 17.8891 13.4845C18.4118 13.4845 18.9064 13.8972 19.2364 14.2817L21.5737 17.2517C21.7664 17.5545 21.9309 17.609 22.0409 17.609H26.5782C27.0182 17.609 27.4037 17.4717 27.4037 17.1963C27.4037 17.1136 27.3764 17.0036 27.3209 16.9209L23.3337 11.9436C23.0037 11.5309 22.8664 11.1181 22.8664 10.7063C22.8664 10.2663 23.0318 9.8263 23.3064 9.44086C24.4618 7.70814 26.9364 5.23358 27.5137 3.19814L27.5964 2.84086C27.5691 2.70358 27.5691 2.59358 27.5409 2.45542H23.2236C22.9482 2.56542 22.7282 2.73086 22.5637 2.95086L22.3982 3.47358C21.7655 5.23358 20.0328 7.65358 18.7955 9.33086C18.3828 9.7163 17.9146 9.88086 17.4473 9.88086Z" fill="white"/>
</svg>
