<svg width="33" height="31" viewBox="0 0 33 31" fill="none" xmlns="http://www.w3.org/2000/svg">
<path d="M24.0639 18.3158C23.6768 18.1325 21.8229 17.2157 21.4766 17.0731C21.1302 16.9305 20.8857 16.8897 20.6209 17.2768C20.3561 17.6639 19.643 18.4992 19.4189 18.764C19.1948 19.0289 18.9911 19.0493 18.604 18.764C17.4922 18.3179 16.4654 17.6839 15.5684 16.8897C14.7564 16.1253 14.069 15.2385 13.5311 14.2616C13.307 13.8949 13.5311 13.6912 13.6941 13.4874C13.8571 13.2837 14.0608 13.0596 14.2645 12.8355C14.4135 12.6417 14.5368 12.4294 14.6312 12.2039C14.6818 12.0991 14.708 11.9842 14.708 11.8678C14.708 11.7514 14.6818 11.6365 14.6312 11.5316C14.6312 11.3483 13.7756 9.49433 13.4496 8.74053C13.1236 7.98673 12.8384 8.0886 12.6143 8.0886H11.7994C11.4112 8.10373 11.0449 8.27225 10.7808 8.55717C10.3545 8.96397 10.0168 9.45443 9.78893 9.99782C9.56106 10.5412 9.44789 11.1258 9.45651 11.715C9.56072 13.1614 10.0926 14.5442 10.9845 15.6877C12.6212 18.1191 14.8604 20.0845 17.4835 21.3922C18.3799 21.7792 19.0726 22.0033 19.6226 22.1867C20.3951 22.4202 21.2115 22.469 22.0063 22.3293C22.5341 22.2222 23.0343 22.0078 23.4759 21.6994C23.9175 21.391 24.291 20.9952 24.5733 20.5365C24.8082 19.97 24.8856 19.3506 24.7974 18.7437C24.6955 18.6011 24.451 18.4992 24.0639 18.3158Z" fill="white"/>
<path d="M27.8737 4.44186C26.4647 3.01959 24.7852 1.89386 22.9343 1.13108C21.0833 0.368289 19.0983 -0.0161105 17.0964 0.000549779C14.4444 0.0144277 11.8425 0.723856 9.55051 2.05798C7.25852 3.3921 5.35668 5.30423 4.03493 7.60337C2.71318 9.90252 2.01779 12.5082 2.0182 15.1602C2.01862 17.8122 2.71483 20.4177 4.0373 22.7164L2 30.56L10.0269 28.5227C12.246 29.7303 14.733 30.3608 17.2594 30.3563H17.0964C20.1073 30.3759 23.0559 29.4983 25.5661 27.8354C28.0763 26.1726 30.0343 23.7997 31.1906 21.0196C32.3468 18.2394 32.6488 15.1778 32.058 12.2253C31.4673 9.27281 30.0106 6.56314 27.8737 4.44186ZM17.0964 27.7486C14.8361 27.7504 12.6178 27.1377 10.6789 25.9761L10.2307 25.7113L5.4634 26.954L6.72653 22.309L6.44131 21.8404C4.81423 19.2201 4.2056 16.0937 4.73089 13.0544C5.25618 10.0151 6.87885 7.27429 9.29101 5.3521C11.7032 3.4299 14.737 2.46002 17.8169 2.62646C20.8968 2.7929 23.8084 4.0841 25.9994 6.25506C27.1739 7.42017 28.1049 8.8074 28.738 10.3359C29.3711 11.8644 29.6936 13.5036 29.6869 15.1581C29.6815 18.4956 28.3532 21.6949 25.9932 24.0549C23.6332 26.4149 20.4339 27.7432 17.0964 27.7486Z" fill="white"/>
</svg>
